<mxfile host="Electron" modified="2023-12-31T16:09:40.182Z" agent="Mozilla/5.0 (X11; Linux x86_64) AppleWebKit/537.36 (KHTML, like Gecko) draw.io/22.1.16 Chrome/120.0.6099.109 Electron/28.1.0 Safari/537.36" etag="sdDv2zuwrJ2ZfdYn_SeU" version="22.1.16" type="device">
  <diagram name="Page-1" id="WQbTuEZxUZHTxprijXHo">
    <mxGraphModel dx="818" dy="531" grid="1" gridSize="10" guides="1" tooltips="1" connect="1" arrows="1" fold="1" page="1" pageScale="1" pageWidth="827" pageHeight="1169" math="0" shadow="0">
      <root>
        <mxCell id="0" />
        <mxCell id="1" parent="0" />
        <mxCell id="ZZQSpEmbPq0q421OqMJ5-1" style="rounded=0;orthogonalLoop=1;jettySize=auto;html=1;exitX=0.5;exitY=1;exitDx=0;exitDy=0;entryX=0.5;entryY=0;entryDx=0;entryDy=0;endArrow=none;endFill=0;" parent="1" source="ZZQSpEmbPq0q421OqMJ5-2" target="ZZQSpEmbPq0q421OqMJ5-27" edge="1">
          <mxGeometry relative="1" as="geometry" />
        </mxCell>
        <mxCell id="ZZQSpEmbPq0q421OqMJ5-2" value="" style="rounded=0;whiteSpace=wrap;html=1;" parent="1" vertex="1">
          <mxGeometry x="40" y="40" width="160" height="150" as="geometry" />
        </mxCell>
        <mxCell id="ZZQSpEmbPq0q421OqMJ5-3" value="" style="group;fillColor=#fad9d5;strokeColor=#ae4132;" parent="1" vertex="1" connectable="0">
          <mxGeometry x="50" y="50" width="140" height="60" as="geometry" />
        </mxCell>
        <mxCell id="ZZQSpEmbPq0q421OqMJ5-4" value="&amp;nbsp;1" style="rounded=0;whiteSpace=wrap;html=1;align=left;fillColor=#647687;strokeColor=#314354;fontColor=#ffffff;" parent="ZZQSpEmbPq0q421OqMJ5-3" vertex="1">
          <mxGeometry width="140" height="20" as="geometry" />
        </mxCell>
        <mxCell id="ZZQSpEmbPq0q421OqMJ5-5" value="&amp;nbsp;2" style="rounded=0;whiteSpace=wrap;html=1;align=left;fillColor=#647687;strokeColor=#314354;fontColor=#ffffff;" parent="ZZQSpEmbPq0q421OqMJ5-3" vertex="1">
          <mxGeometry y="20" width="140" height="20" as="geometry" />
        </mxCell>
        <mxCell id="ZZQSpEmbPq0q421OqMJ5-6" value="&amp;nbsp;1" style="rounded=0;whiteSpace=wrap;html=1;align=left;fillColor=#647687;strokeColor=#314354;fontColor=#ffffff;" parent="ZZQSpEmbPq0q421OqMJ5-3" vertex="1">
          <mxGeometry y="40" width="140" height="20" as="geometry" />
        </mxCell>
        <mxCell id="ZZQSpEmbPq0q421OqMJ5-11" value="" style="rounded=0;whiteSpace=wrap;html=1;" parent="1" vertex="1">
          <mxGeometry x="240" y="40" width="160" height="150" as="geometry" />
        </mxCell>
        <mxCell id="ZZQSpEmbPq0q421OqMJ5-12" value="" style="group" parent="1" vertex="1" connectable="0">
          <mxGeometry x="250" y="50" width="140" height="60" as="geometry" />
        </mxCell>
        <mxCell id="ZZQSpEmbPq0q421OqMJ5-13" value="&amp;nbsp;2" style="rounded=0;whiteSpace=wrap;html=1;align=left;fillColor=#647687;fontColor=#ffffff;strokeColor=#314354;" parent="ZZQSpEmbPq0q421OqMJ5-12" vertex="1">
          <mxGeometry width="140" height="20" as="geometry" />
        </mxCell>
        <mxCell id="ZZQSpEmbPq0q421OqMJ5-14" value="&amp;nbsp;2" style="rounded=0;whiteSpace=wrap;html=1;align=left;fillColor=#647687;fontColor=#ffffff;strokeColor=#314354;" parent="ZZQSpEmbPq0q421OqMJ5-12" vertex="1">
          <mxGeometry y="20" width="140" height="20" as="geometry" />
        </mxCell>
        <mxCell id="ZZQSpEmbPq0q421OqMJ5-15" value="&amp;nbsp;2" style="rounded=0;whiteSpace=wrap;html=1;align=left;fillColor=#647687;fontColor=#ffffff;strokeColor=#314354;" parent="ZZQSpEmbPq0q421OqMJ5-12" vertex="1">
          <mxGeometry y="40" width="140" height="20" as="geometry" />
        </mxCell>
        <mxCell id="ZZQSpEmbPq0q421OqMJ5-20" value="" style="rounded=0;whiteSpace=wrap;html=1;" parent="1" vertex="1">
          <mxGeometry x="440" y="40" width="160" height="150" as="geometry" />
        </mxCell>
        <mxCell id="ZZQSpEmbPq0q421OqMJ5-21" value="" style="group" parent="1" vertex="1" connectable="0">
          <mxGeometry x="450" y="50" width="140" height="60" as="geometry" />
        </mxCell>
        <mxCell id="ZZQSpEmbPq0q421OqMJ5-22" value="&amp;nbsp;2" style="rounded=0;whiteSpace=wrap;html=1;align=left;fillColor=#647687;fontColor=#ffffff;strokeColor=#314354;" parent="ZZQSpEmbPq0q421OqMJ5-21" vertex="1">
          <mxGeometry width="140" height="20" as="geometry" />
        </mxCell>
        <mxCell id="ZZQSpEmbPq0q421OqMJ5-23" value="&amp;nbsp;1" style="rounded=0;whiteSpace=wrap;html=1;align=left;fillColor=#647687;fontColor=#ffffff;strokeColor=#314354;" parent="ZZQSpEmbPq0q421OqMJ5-21" vertex="1">
          <mxGeometry y="20" width="140" height="20" as="geometry" />
        </mxCell>
        <mxCell id="ZZQSpEmbPq0q421OqMJ5-24" value="" style="group" parent="1" vertex="1" connectable="0">
          <mxGeometry x="450" y="120" width="140" height="60" as="geometry" />
        </mxCell>
        <mxCell id="ZZQSpEmbPq0q421OqMJ5-25" value="&amp;nbsp;1" style="rounded=0;whiteSpace=wrap;html=1;align=left;fillColor=#6d8764;fontColor=#ffffff;strokeColor=#3A5431;" parent="ZZQSpEmbPq0q421OqMJ5-24" vertex="1">
          <mxGeometry width="140" height="20" as="geometry" />
        </mxCell>
        <mxCell id="ZZQSpEmbPq0q421OqMJ5-26" value="&amp;nbsp;2" style="rounded=0;whiteSpace=wrap;html=1;align=left;fillColor=#6d8764;fontColor=#ffffff;strokeColor=#3A5431;" parent="ZZQSpEmbPq0q421OqMJ5-24" vertex="1">
          <mxGeometry y="20" width="140" height="20" as="geometry" />
        </mxCell>
        <mxCell id="ZZQSpEmbPq0q421OqMJ5-27" value="Exchange&lt;br&gt;Shuffle" style="ellipse;whiteSpace=wrap;html=1;" parent="1" vertex="1">
          <mxGeometry x="260" y="230" width="120" height="60" as="geometry" />
        </mxCell>
        <mxCell id="ZZQSpEmbPq0q421OqMJ5-28" value="" style="rounded=0;whiteSpace=wrap;html=1;" parent="1" vertex="1">
          <mxGeometry x="40" y="320" width="160" height="150" as="geometry" />
        </mxCell>
        <mxCell id="ZZQSpEmbPq0q421OqMJ5-37" value="" style="rounded=0;whiteSpace=wrap;html=1;" parent="1" vertex="1">
          <mxGeometry x="240" y="320" width="160" height="150" as="geometry" />
        </mxCell>
        <mxCell id="ZZQSpEmbPq0q421OqMJ5-46" value="" style="rounded=0;whiteSpace=wrap;html=1;" parent="1" vertex="1">
          <mxGeometry x="440" y="320" width="160" height="150" as="geometry" />
        </mxCell>
        <mxCell id="ZZQSpEmbPq0q421OqMJ5-53" style="rounded=0;orthogonalLoop=1;jettySize=auto;html=1;exitX=0.5;exitY=0;exitDx=0;exitDy=0;entryX=0.5;entryY=1;entryDx=0;entryDy=0;endArrow=none;endFill=0;" parent="1" source="ZZQSpEmbPq0q421OqMJ5-27" target="ZZQSpEmbPq0q421OqMJ5-20" edge="1">
          <mxGeometry relative="1" as="geometry">
            <mxPoint x="130" y="200" as="sourcePoint" />
            <mxPoint x="330" y="240" as="targetPoint" />
          </mxGeometry>
        </mxCell>
        <mxCell id="ZZQSpEmbPq0q421OqMJ5-54" style="rounded=0;orthogonalLoop=1;jettySize=auto;html=1;entryX=0.5;entryY=0;entryDx=0;entryDy=0;endArrow=none;endFill=0;" parent="1" target="ZZQSpEmbPq0q421OqMJ5-37" edge="1">
          <mxGeometry relative="1" as="geometry">
            <mxPoint x="320" y="290" as="sourcePoint" />
            <mxPoint x="530" y="200" as="targetPoint" />
          </mxGeometry>
        </mxCell>
        <mxCell id="ZZQSpEmbPq0q421OqMJ5-55" style="rounded=0;orthogonalLoop=1;jettySize=auto;html=1;exitX=0.5;exitY=1;exitDx=0;exitDy=0;entryX=0.5;entryY=0;entryDx=0;entryDy=0;endArrow=none;endFill=0;" parent="1" source="ZZQSpEmbPq0q421OqMJ5-27" target="ZZQSpEmbPq0q421OqMJ5-28" edge="1">
          <mxGeometry relative="1" as="geometry">
            <mxPoint x="340" y="250" as="sourcePoint" />
            <mxPoint x="540" y="210" as="targetPoint" />
          </mxGeometry>
        </mxCell>
        <mxCell id="ZZQSpEmbPq0q421OqMJ5-56" style="rounded=0;orthogonalLoop=1;jettySize=auto;html=1;exitX=0.5;exitY=1;exitDx=0;exitDy=0;endArrow=none;endFill=0;entryX=0.5;entryY=0;entryDx=0;entryDy=0;" parent="1" source="ZZQSpEmbPq0q421OqMJ5-27" target="ZZQSpEmbPq0q421OqMJ5-46" edge="1">
          <mxGeometry relative="1" as="geometry">
            <mxPoint x="350" y="260" as="sourcePoint" />
            <mxPoint x="550" y="220" as="targetPoint" />
          </mxGeometry>
        </mxCell>
        <mxCell id="ZZQSpEmbPq0q421OqMJ5-57" style="rounded=0;orthogonalLoop=1;jettySize=auto;html=1;exitX=0.5;exitY=0;exitDx=0;exitDy=0;entryX=0.5;entryY=1;entryDx=0;entryDy=0;endArrow=none;endFill=0;" parent="1" source="ZZQSpEmbPq0q421OqMJ5-27" target="ZZQSpEmbPq0q421OqMJ5-11" edge="1">
          <mxGeometry relative="1" as="geometry">
            <mxPoint x="360" y="270" as="sourcePoint" />
            <mxPoint x="560" y="230" as="targetPoint" />
          </mxGeometry>
        </mxCell>
        <mxCell id="ZZQSpEmbPq0q421OqMJ5-58" value="Join" style="ellipse;whiteSpace=wrap;html=1;" parent="1" vertex="1">
          <mxGeometry x="260" y="520" width="120" height="60" as="geometry" />
        </mxCell>
        <mxCell id="ZZQSpEmbPq0q421OqMJ5-59" value="" style="rounded=0;whiteSpace=wrap;html=1;" parent="1" vertex="1">
          <mxGeometry x="40" y="610" width="160" height="80" as="geometry" />
        </mxCell>
        <mxCell id="ZZQSpEmbPq0q421OqMJ5-60" value="" style="group;fillColor=#fad9d5;strokeColor=#ae4132;" parent="1" vertex="1" connectable="0">
          <mxGeometry x="50" y="620" width="70" height="60" as="geometry" />
        </mxCell>
        <mxCell id="ZZQSpEmbPq0q421OqMJ5-61" value="&amp;nbsp;1" style="rounded=0;whiteSpace=wrap;html=1;align=left;fillColor=#647687;fontColor=#ffffff;strokeColor=#314354;" parent="ZZQSpEmbPq0q421OqMJ5-60" vertex="1">
          <mxGeometry width="70" height="20" as="geometry" />
        </mxCell>
        <mxCell id="ZZQSpEmbPq0q421OqMJ5-62" value="&amp;nbsp;2" style="rounded=0;whiteSpace=wrap;html=1;align=left;fillColor=#647687;fontColor=#ffffff;strokeColor=#314354;" parent="ZZQSpEmbPq0q421OqMJ5-60" vertex="1">
          <mxGeometry y="20" width="70" height="20" as="geometry" />
        </mxCell>
        <mxCell id="ZZQSpEmbPq0q421OqMJ5-63" value="&amp;nbsp;1" style="rounded=0;whiteSpace=wrap;html=1;align=left;fillColor=#647687;fontColor=#ffffff;strokeColor=#314354;" parent="ZZQSpEmbPq0q421OqMJ5-60" vertex="1">
          <mxGeometry y="40" width="70" height="20" as="geometry" />
        </mxCell>
        <mxCell id="ZZQSpEmbPq0q421OqMJ5-64" value="" style="group" parent="1" vertex="1" connectable="0">
          <mxGeometry x="120" y="620" width="70" height="60" as="geometry" />
        </mxCell>
        <mxCell id="ZZQSpEmbPq0q421OqMJ5-65" value="&amp;nbsp;1" style="rounded=0;whiteSpace=wrap;html=1;align=left;fillColor=#6d8764;fontColor=#ffffff;strokeColor=#3A5431;" parent="ZZQSpEmbPq0q421OqMJ5-64" vertex="1">
          <mxGeometry width="70" height="20" as="geometry" />
        </mxCell>
        <mxCell id="ZZQSpEmbPq0q421OqMJ5-66" value="&amp;nbsp;2" style="rounded=0;whiteSpace=wrap;html=1;align=left;fillColor=#6d8764;fontColor=#ffffff;strokeColor=#3A5431;" parent="ZZQSpEmbPq0q421OqMJ5-64" vertex="1">
          <mxGeometry y="20" width="70" height="20" as="geometry" />
        </mxCell>
        <mxCell id="ZZQSpEmbPq0q421OqMJ5-67" value="&amp;nbsp;1" style="rounded=0;whiteSpace=wrap;html=1;align=left;fillColor=#6d8764;fontColor=#ffffff;strokeColor=#3A5431;" parent="ZZQSpEmbPq0q421OqMJ5-64" vertex="1">
          <mxGeometry y="40" width="70" height="20" as="geometry" />
        </mxCell>
        <mxCell id="ZZQSpEmbPq0q421OqMJ5-68" value="" style="rounded=0;whiteSpace=wrap;html=1;" parent="1" vertex="1">
          <mxGeometry x="240" y="610" width="160" height="80" as="geometry" />
        </mxCell>
        <mxCell id="ZZQSpEmbPq0q421OqMJ5-69" value="" style="group" parent="1" vertex="1" connectable="0">
          <mxGeometry x="250" y="620" width="70" height="60" as="geometry" />
        </mxCell>
        <mxCell id="ZZQSpEmbPq0q421OqMJ5-70" value="&amp;nbsp;2" style="rounded=0;whiteSpace=wrap;html=1;align=left;fillColor=#647687;fontColor=#ffffff;strokeColor=#314354;" parent="ZZQSpEmbPq0q421OqMJ5-69" vertex="1">
          <mxGeometry width="70" height="20" as="geometry" />
        </mxCell>
        <mxCell id="ZZQSpEmbPq0q421OqMJ5-71" value="&amp;nbsp;2" style="rounded=0;whiteSpace=wrap;html=1;align=left;fillColor=#647687;fontColor=#ffffff;strokeColor=#314354;" parent="ZZQSpEmbPq0q421OqMJ5-69" vertex="1">
          <mxGeometry y="20" width="70" height="20" as="geometry" />
        </mxCell>
        <mxCell id="ZZQSpEmbPq0q421OqMJ5-72" value="&amp;nbsp;2" style="rounded=0;whiteSpace=wrap;html=1;align=left;fillColor=#647687;fontColor=#ffffff;strokeColor=#314354;" parent="ZZQSpEmbPq0q421OqMJ5-69" vertex="1">
          <mxGeometry y="40" width="70" height="20" as="geometry" />
        </mxCell>
        <mxCell id="ZZQSpEmbPq0q421OqMJ5-73" value="" style="group" parent="1" vertex="1" connectable="0">
          <mxGeometry x="320" y="620" width="70" height="60" as="geometry" />
        </mxCell>
        <mxCell id="ZZQSpEmbPq0q421OqMJ5-74" value="&amp;nbsp;2" style="rounded=0;whiteSpace=wrap;html=1;align=left;fillColor=#6d8764;fontColor=#ffffff;strokeColor=#3A5431;" parent="ZZQSpEmbPq0q421OqMJ5-73" vertex="1">
          <mxGeometry width="70" height="20" as="geometry" />
        </mxCell>
        <mxCell id="ZZQSpEmbPq0q421OqMJ5-75" value="&amp;nbsp;2" style="rounded=0;whiteSpace=wrap;html=1;align=left;fillColor=#6d8764;fontColor=#ffffff;strokeColor=#3A5431;" parent="ZZQSpEmbPq0q421OqMJ5-73" vertex="1">
          <mxGeometry y="20" width="70" height="20" as="geometry" />
        </mxCell>
        <mxCell id="ZZQSpEmbPq0q421OqMJ5-76" value="&amp;nbsp;2" style="rounded=0;whiteSpace=wrap;html=1;align=left;fillColor=#6d8764;fontColor=#ffffff;strokeColor=#3A5431;" parent="ZZQSpEmbPq0q421OqMJ5-73" vertex="1">
          <mxGeometry y="40" width="70" height="20" as="geometry" />
        </mxCell>
        <mxCell id="ZZQSpEmbPq0q421OqMJ5-77" value="" style="rounded=0;whiteSpace=wrap;html=1;" parent="1" vertex="1">
          <mxGeometry x="440" y="610" width="160" height="80" as="geometry" />
        </mxCell>
        <mxCell id="ZZQSpEmbPq0q421OqMJ5-78" value="" style="group" parent="1" vertex="1" connectable="0">
          <mxGeometry x="450" y="620" width="70" height="60" as="geometry" />
        </mxCell>
        <mxCell id="ZZQSpEmbPq0q421OqMJ5-79" value="&amp;nbsp;2" style="rounded=0;whiteSpace=wrap;html=1;align=left;fillColor=#647687;fontColor=#ffffff;strokeColor=#314354;" parent="ZZQSpEmbPq0q421OqMJ5-78" vertex="1">
          <mxGeometry width="70" height="20" as="geometry" />
        </mxCell>
        <mxCell id="ZZQSpEmbPq0q421OqMJ5-80" value="&amp;nbsp;1" style="rounded=0;whiteSpace=wrap;html=1;align=left;fillColor=#647687;fontColor=#ffffff;strokeColor=#314354;" parent="ZZQSpEmbPq0q421OqMJ5-78" vertex="1">
          <mxGeometry y="20" width="70" height="20" as="geometry" />
        </mxCell>
        <mxCell id="ZZQSpEmbPq0q421OqMJ5-81" value="" style="group" parent="1" vertex="1" connectable="0">
          <mxGeometry x="520" y="620" width="70" height="60" as="geometry" />
        </mxCell>
        <mxCell id="ZZQSpEmbPq0q421OqMJ5-82" value="&amp;nbsp;2" style="rounded=0;whiteSpace=wrap;html=1;align=left;fillColor=#6d8764;fontColor=#ffffff;strokeColor=#3A5431;" parent="ZZQSpEmbPq0q421OqMJ5-81" vertex="1">
          <mxGeometry width="70" height="20" as="geometry" />
        </mxCell>
        <mxCell id="ZZQSpEmbPq0q421OqMJ5-83" value="&amp;nbsp;1" style="rounded=0;whiteSpace=wrap;html=1;align=left;fillColor=#6d8764;fontColor=#ffffff;strokeColor=#3A5431;" parent="ZZQSpEmbPq0q421OqMJ5-81" vertex="1">
          <mxGeometry y="20" width="70" height="20" as="geometry" />
        </mxCell>
        <mxCell id="ZZQSpEmbPq0q421OqMJ5-84" style="rounded=0;orthogonalLoop=1;jettySize=auto;html=1;entryX=0.5;entryY=0;entryDx=0;entryDy=0;endArrow=none;endFill=0;" parent="1" target="ZZQSpEmbPq0q421OqMJ5-68" edge="1">
          <mxGeometry relative="1" as="geometry">
            <mxPoint x="320" y="580" as="sourcePoint" />
            <mxPoint x="530" y="490" as="targetPoint" />
          </mxGeometry>
        </mxCell>
        <mxCell id="ZZQSpEmbPq0q421OqMJ5-85" style="rounded=0;orthogonalLoop=1;jettySize=auto;html=1;exitX=0.5;exitY=1;exitDx=0;exitDy=0;entryX=0.5;entryY=0;entryDx=0;entryDy=0;endArrow=none;endFill=0;" parent="1" source="ZZQSpEmbPq0q421OqMJ5-58" target="ZZQSpEmbPq0q421OqMJ5-59" edge="1">
          <mxGeometry relative="1" as="geometry">
            <mxPoint x="340" y="540" as="sourcePoint" />
            <mxPoint x="540" y="500" as="targetPoint" />
          </mxGeometry>
        </mxCell>
        <mxCell id="ZZQSpEmbPq0q421OqMJ5-86" style="rounded=0;orthogonalLoop=1;jettySize=auto;html=1;exitX=0.5;exitY=1;exitDx=0;exitDy=0;endArrow=none;endFill=0;entryX=0.5;entryY=0;entryDx=0;entryDy=0;" parent="1" source="ZZQSpEmbPq0q421OqMJ5-58" target="ZZQSpEmbPq0q421OqMJ5-77" edge="1">
          <mxGeometry relative="1" as="geometry">
            <mxPoint x="350" y="550" as="sourcePoint" />
            <mxPoint x="550" y="510" as="targetPoint" />
          </mxGeometry>
        </mxCell>
        <mxCell id="ZZQSpEmbPq0q421OqMJ5-87" style="rounded=0;orthogonalLoop=1;jettySize=auto;html=1;exitX=0.5;exitY=0;exitDx=0;exitDy=0;endArrow=none;endFill=0;entryX=0.5;entryY=1;entryDx=0;entryDy=0;" parent="1" source="ZZQSpEmbPq0q421OqMJ5-58" target="ZZQSpEmbPq0q421OqMJ5-37" edge="1">
          <mxGeometry relative="1" as="geometry">
            <mxPoint x="330" y="590" as="sourcePoint" />
            <mxPoint x="530" y="620" as="targetPoint" />
          </mxGeometry>
        </mxCell>
        <mxCell id="ZZQSpEmbPq0q421OqMJ5-88" style="rounded=0;orthogonalLoop=1;jettySize=auto;html=1;exitX=0.5;exitY=0;exitDx=0;exitDy=0;endArrow=none;endFill=0;entryX=0.5;entryY=1;entryDx=0;entryDy=0;" parent="1" source="ZZQSpEmbPq0q421OqMJ5-58" target="ZZQSpEmbPq0q421OqMJ5-28" edge="1">
          <mxGeometry relative="1" as="geometry">
            <mxPoint x="340" y="600" as="sourcePoint" />
            <mxPoint x="540" y="630" as="targetPoint" />
          </mxGeometry>
        </mxCell>
        <mxCell id="ZZQSpEmbPq0q421OqMJ5-89" style="rounded=0;orthogonalLoop=1;jettySize=auto;html=1;exitX=0.5;exitY=0;exitDx=0;exitDy=0;endArrow=none;endFill=0;entryX=0.5;entryY=1;entryDx=0;entryDy=0;" parent="1" source="ZZQSpEmbPq0q421OqMJ5-58" target="ZZQSpEmbPq0q421OqMJ5-46" edge="1">
          <mxGeometry relative="1" as="geometry">
            <mxPoint x="350" y="610" as="sourcePoint" />
            <mxPoint x="550" y="640" as="targetPoint" />
          </mxGeometry>
        </mxCell>
        <mxCell id="ZZQSpEmbPq0q421OqMJ5-90" value="" style="group" parent="1" vertex="1" connectable="0">
          <mxGeometry x="450" y="400" width="140" height="60" as="geometry" />
        </mxCell>
        <mxCell id="ZZQSpEmbPq0q421OqMJ5-91" value="&amp;nbsp;1" style="rounded=0;whiteSpace=wrap;html=1;align=left;fillColor=#6d8764;fontColor=#ffffff;strokeColor=#3A5431;" parent="ZZQSpEmbPq0q421OqMJ5-90" vertex="1">
          <mxGeometry width="140" height="20" as="geometry" />
        </mxCell>
        <mxCell id="ZZQSpEmbPq0q421OqMJ5-92" value="&amp;nbsp;2" style="rounded=0;whiteSpace=wrap;html=1;align=left;fillColor=#6d8764;fontColor=#ffffff;strokeColor=#3A5431;" parent="ZZQSpEmbPq0q421OqMJ5-90" vertex="1">
          <mxGeometry y="20" width="140" height="20" as="geometry" />
        </mxCell>
        <mxCell id="ZZQSpEmbPq0q421OqMJ5-93" value="" style="group" parent="1" vertex="1" connectable="0">
          <mxGeometry x="250" y="400" width="140" height="60" as="geometry" />
        </mxCell>
        <mxCell id="ZZQSpEmbPq0q421OqMJ5-94" value="&amp;nbsp;1" style="rounded=0;whiteSpace=wrap;html=1;align=left;fillColor=#6d8764;fontColor=#ffffff;strokeColor=#3A5431;" parent="ZZQSpEmbPq0q421OqMJ5-93" vertex="1">
          <mxGeometry width="140" height="20" as="geometry" />
        </mxCell>
        <mxCell id="ZZQSpEmbPq0q421OqMJ5-95" value="&amp;nbsp;2" style="rounded=0;whiteSpace=wrap;html=1;align=left;fillColor=#6d8764;fontColor=#ffffff;strokeColor=#3A5431;" parent="ZZQSpEmbPq0q421OqMJ5-93" vertex="1">
          <mxGeometry y="20" width="140" height="20" as="geometry" />
        </mxCell>
        <mxCell id="ZZQSpEmbPq0q421OqMJ5-96" value="" style="group" parent="1" vertex="1" connectable="0">
          <mxGeometry x="50" y="400" width="140" height="60" as="geometry" />
        </mxCell>
        <mxCell id="ZZQSpEmbPq0q421OqMJ5-97" value="&amp;nbsp;1" style="rounded=0;whiteSpace=wrap;html=1;align=left;fillColor=#6d8764;fontColor=#ffffff;strokeColor=#3A5431;" parent="ZZQSpEmbPq0q421OqMJ5-96" vertex="1">
          <mxGeometry width="140" height="20" as="geometry" />
        </mxCell>
        <mxCell id="ZZQSpEmbPq0q421OqMJ5-98" value="&amp;nbsp;2" style="rounded=0;whiteSpace=wrap;html=1;align=left;fillColor=#6d8764;fontColor=#ffffff;strokeColor=#3A5431;" parent="ZZQSpEmbPq0q421OqMJ5-96" vertex="1">
          <mxGeometry y="20" width="140" height="20" as="geometry" />
        </mxCell>
        <mxCell id="ZZQSpEmbPq0q421OqMJ5-99" value="" style="group" parent="1" vertex="1" connectable="0">
          <mxGeometry x="450" y="330" width="140" height="60" as="geometry" />
        </mxCell>
        <mxCell id="ZZQSpEmbPq0q421OqMJ5-100" value="&amp;nbsp;2" style="rounded=0;whiteSpace=wrap;html=1;align=left;fillColor=#647687;fontColor=#ffffff;strokeColor=#314354;" parent="ZZQSpEmbPq0q421OqMJ5-99" vertex="1">
          <mxGeometry width="140" height="20" as="geometry" />
        </mxCell>
        <mxCell id="ZZQSpEmbPq0q421OqMJ5-101" value="&amp;nbsp;1" style="rounded=0;whiteSpace=wrap;html=1;align=left;fillColor=#647687;fontColor=#ffffff;strokeColor=#314354;" parent="ZZQSpEmbPq0q421OqMJ5-99" vertex="1">
          <mxGeometry y="20" width="140" height="20" as="geometry" />
        </mxCell>
        <mxCell id="ZZQSpEmbPq0q421OqMJ5-102" value="" style="group" parent="1" vertex="1" connectable="0">
          <mxGeometry x="250" y="330" width="140" height="60" as="geometry" />
        </mxCell>
        <mxCell id="ZZQSpEmbPq0q421OqMJ5-103" value="&amp;nbsp;2" style="rounded=0;whiteSpace=wrap;html=1;align=left;fillColor=#647687;fontColor=#ffffff;strokeColor=#314354;" parent="ZZQSpEmbPq0q421OqMJ5-102" vertex="1">
          <mxGeometry width="140" height="20" as="geometry" />
        </mxCell>
        <mxCell id="ZZQSpEmbPq0q421OqMJ5-104" value="&amp;nbsp;2" style="rounded=0;whiteSpace=wrap;html=1;align=left;fillColor=#647687;fontColor=#ffffff;strokeColor=#314354;" parent="ZZQSpEmbPq0q421OqMJ5-102" vertex="1">
          <mxGeometry y="20" width="140" height="20" as="geometry" />
        </mxCell>
        <mxCell id="ZZQSpEmbPq0q421OqMJ5-105" value="&amp;nbsp;2" style="rounded=0;whiteSpace=wrap;html=1;align=left;fillColor=#647687;fontColor=#ffffff;strokeColor=#314354;" parent="ZZQSpEmbPq0q421OqMJ5-102" vertex="1">
          <mxGeometry y="40" width="140" height="20" as="geometry" />
        </mxCell>
        <mxCell id="ZZQSpEmbPq0q421OqMJ5-106" value="" style="group;fillColor=#fad9d5;strokeColor=#ae4132;" parent="1" vertex="1" connectable="0">
          <mxGeometry x="50" y="330" width="140" height="60" as="geometry" />
        </mxCell>
        <mxCell id="ZZQSpEmbPq0q421OqMJ5-107" value="&amp;nbsp;1" style="rounded=0;whiteSpace=wrap;html=1;align=left;fillColor=#647687;strokeColor=#314354;fontColor=#ffffff;" parent="ZZQSpEmbPq0q421OqMJ5-106" vertex="1">
          <mxGeometry width="140" height="20" as="geometry" />
        </mxCell>
        <mxCell id="ZZQSpEmbPq0q421OqMJ5-108" value="&amp;nbsp;2" style="rounded=0;whiteSpace=wrap;html=1;align=left;fillColor=#647687;strokeColor=#314354;fontColor=#ffffff;" parent="ZZQSpEmbPq0q421OqMJ5-106" vertex="1">
          <mxGeometry y="20" width="140" height="20" as="geometry" />
        </mxCell>
        <mxCell id="ZZQSpEmbPq0q421OqMJ5-109" value="&amp;nbsp;1" style="rounded=0;whiteSpace=wrap;html=1;align=left;fillColor=#647687;strokeColor=#314354;fontColor=#ffffff;" parent="ZZQSpEmbPq0q421OqMJ5-106" vertex="1">
          <mxGeometry y="40" width="140" height="20" as="geometry" />
        </mxCell>
      </root>
    </mxGraphModel>
  </diagram>
</mxfile>
